if (_typeface_js && _typeface_js.loadFace) _typeface_js.loadFace({"glyphs":{"S":{"x_min":1.390625,"x_max":1007.03125,"ha":1013,"o":"m 1007 772 l 827 551 l 618 685 l 565 619 l 940 344 l 758 1 l 312 1 l 1 248 l 136 474 l 404 323 l 444 385 l 51 619 l 423 1036 l 758 1036 l 1007 772 l 1007 772 "},"/":{"x_min":0,"x_max":765.34375,"ha":795,"o":"m 520 1010 l 765 1049 l 275 56 l 0 18 l 520 1010 l 520 1010 "},"K":{"x_min":0,"x_max":840.34375,"ha":840,"o":"m 19 1029 l 309 1029 l 302 748 l 520 997 l 719 785 l 468 512 l 840 247 l 611 0 l 300 337 l 356 -3 l 0 -3 l 19 1029 l 19 1029 "},"7":{"x_min":0,"x_max":890.34375,"ha":999,"o":"m 0 1028 l 890 1008 l 727 -4 l 325 91 l 545 696 l 70 657 l 0 1028 l 0 1028 "},"d":{"x_min":0,"x_max":862.5625,"ha":882,"o":"m 511 1033 l 802 794 l 862 237 l 575 3 l 0 3 l 0 970 l 511 1033 l 511 1033 m 318 662 l 318 359 l 506 425 l 506 576 l 318 662 l 318 662 "},",":{"x_min":-34.71875,"x_max":191.6875,"ha":201,"o":"m 80 113 l 191 106 l 158 -53 l 38 -165 l -34 -165 l 66 -20 l 80 113 l 80 113 "},"Y":{"x_min":-129.171875,"x_max":847.296875,"ha":868,"o":"m 98 1018 l 327 773 l 543 1046 l 847 816 l 515 527 l 761 18 l 216 43 l 216 486 l -129 816 l 98 1018 l 98 1018 "},"E":{"x_min":0,"x_max":840.34375,"ha":796,"o":"m 75 1035 l 755 1035 l 698 747 l 363 695 l 359 624 l 655 602 l 641 381 l 377 357 l 401 282 l 722 280 l 840 4 l 75 4 l 0 668 l 75 1035 l 75 1035 "},"y":{"x_min":-129.171875,"x_max":847.296875,"ha":868,"o":"m 98 1018 l 327 773 l 543 1046 l 847 816 l 515 527 l 761 18 l 216 43 l 216 486 l -129 816 l 98 1018 l 98 1018 "},"\"":{"x_min":-4.5625,"x_max":285,"ha":348,"o":"m 51 1090 l 126 1077 l 126 923 l 52 824 l -4 846 l 52 959 l 51 1090 m 285 1077 l 285 923 l 211 824 l 154 846 l 211 959 l 210 1090 l 285 1077 "},"g":{"x_min":0,"x_max":900.078125,"ha":926,"o":"m 870 821 l 633 687 l 537 740 l 395 697 l 311 496 l 400 308 l 655 339 l 661 384 l 463 366 l 488 646 l 900 640 l 900 91 l 209 3 l 0 429 l 76 821 l 370 1035 l 732 1010 l 870 821 l 870 821 "},"e":{"x_min":0,"x_max":840.34375,"ha":796,"o":"m 75 1035 l 755 1035 l 698 747 l 363 695 l 359 624 l 655 602 l 641 381 l 377 357 l 401 282 l 722 280 l 840 4 l 75 4 l 0 668 l 75 1035 l 75 1035 "},"J":{"x_min":0,"x_max":913.96875,"ha":954,"o":"m 0 1026 l 304 1033 l 913 1005 l 913 732 l 637 706 l 740 224 l 597 43 l 326 0 l 25 0 l 34 305 l 365 328 l 327 706 l 0 732 l 0 1026 l 0 1026 "},"|":{"x_min":4.234375,"x_max":83,"ha":232,"o":"m 83 -168 l 7 -168 l 4 1185 l 80 1185 l 83 -168 "},"^":{"x_min":-4.171875,"x_max":411.140625,"ha":549,"o":"m 411 831 q 398 823 409 833 q 373 801 387 813 q 338 767 358 785 q 276 872 304 826 q 232 945 252 912 q 211 979 212 977 q 200 962 211 979 q 175 920 190 945 q 144 865 161 895 q 113 810 127 835 q 88 767 98 784 q 77 751 77 751 q 63 759 76 751 q 36 777 51 767 q 8 794 20 787 q -4 802 -4 802 q 4 816 -4 802 q 29 854 13 830 q 63 909 44 879 q 104 972 83 940 l 212 1142 l 312 986 q 348 929 330 956 q 380 879 366 901 q 402 844 394 856 q 411 831 411 831 "},"q":{"x_min":-29.171875,"x_max":1107.03125,"ha":1042,"o":"m 737 1015 l 1001 664 l 907 300 l 1107 116 l 862 -3 l 743 84 l 330 -4 l -29 337 l 36 823 l 361 1028 l 737 1015 l 737 1015 m 316 662 l 306 377 l 534 309 l 408 434 l 591 568 l 701 466 l 738 539 l 600 726 l 316 662 l 316 662 "},"b":{"x_min":0.9375,"x_max":873.234375,"ha":840,"o":"m 191 1038 l 673 981 l 784 803 l 776 612 l 703 504 l 805 445 l 873 247 l 795 62 l 634 5 l 28 1 l 0 978 l 191 1038 l 191 1038 m 356 211 l 498 241 l 498 336 l 356 384 l 356 211 l 356 211 m 338 641 l 479 670 l 479 784 l 338 815 l 338 641 l 338 641 "},"D":{"x_min":0,"x_max":862.5625,"ha":882,"o":"m 511 1033 l 802 794 l 862 237 l 575 3 l 0 3 l 0 970 l 511 1033 l 511 1033 m 318 662 l 318 359 l 506 425 l 506 576 l 318 662 l 318 662 "},"z":{"x_min":0,"x_max":868.125,"ha":926,"o":"m 857 4 l 0 38 l 0 316 l 344 675 l 0 654 l 61 1039 l 868 982 l 852 718 l 536 367 l 868 416 l 857 4 l 857 4 "},"w":{"x_min":0,"x_max":1427.890625,"ha":1432,"o":"m 1427 937 l 984 8 l 726 8 l 630 287 l 488 6 l 252 0 l 0 1003 l 330 1033 l 393 780 l 468 534 l 697 763 l 870 502 l 1080 1012 l 1427 937 l 1427 937 "},"$":{"x_min":1.390625,"x_max":922.296875,"ha":1013,"o":"m 922 763 l 758 562 l 598 733 l 401 800 l 352 737 l 922 355 l 694 58 l 286 58 l 1 284 l 125 491 l 359 288 l 616 226 l 654 283 l 47 625 l 387 1005 l 694 1005 l 922 763 m 473 1104 l 588 1102 l 554 -27 l 393 -44 l 473 1104 "},"\\":{"x_min":-112.515625,"x_max":652.828125,"ha":622,"o":"m 133 997 l 652 6 l 377 44 l -112 1036 l 133 997 l 133 997 "},"’":{"x_min":-4.953125,"x_max":126,"ha":154,"o":"m 51 1090 l 126 1077 l 126 923 l 52 824 l -4 846 l 52 959 l 51 1090 l 51 1090 "},"-":{"x_min":1.390625,"x_max":473.65625,"ha":607,"o":"m 8 475 l 1 598 l 451 654 l 473 491 l 8 475 l 8 475 "},"Q":{"x_min":-29.171875,"x_max":1107.03125,"ha":1042,"o":"m 737 1015 l 1001 664 l 907 300 l 1107 116 l 862 -3 l 743 84 l 330 -4 l -29 337 l 36 823 l 361 1028 l 737 1015 l 737 1015 m 316 662 l 306 377 l 534 309 l 408 434 l 591 568 l 701 466 l 738 539 l 600 726 l 316 662 l 316 662 "},"M":{"x_min":0,"x_max":1602.90625,"ha":1606,"o":"m 0 105 l 495 1024 l 788 1024 l 886 746 l 1058 1025 l 1318 1031 l 1602 31 l 1232 1 l 1161 253 l 1076 498 l 820 270 l 625 530 l 390 31 l 0 105 l 0 105 "},"C":{"x_min":-48.609375,"x_max":857.015625,"ha":854,"o":"m 398 1033 l 782 1008 l 766 640 l 516 756 l 298 655 l 288 419 l 480 288 l 762 435 l 857 48 l 302 0 l 31 237 l -48 535 l 76 856 l 398 1033 l 398 1033 "},"[":{"x_min":3,"x_max":335,"ha":304,"o":"m 323 1189 l 335 1086 l 123 1104 l 117 -20 l 335 20 l 335 -115 l 9 -136 l 3 1203 l 323 1189 "},"L":{"x_min":0,"x_max":811.171875,"ha":882,"o":"m 386 995 l 345 373 l 772 425 l 811 104 l 38 13 l 0 1040 l 386 995 l 386 995 "},"!":{"x_min":0,"x_max":323.640625,"ha":449,"o":"m 98 108 l 147 200 l 273 205 l 323 127 l 290 5 l 177 1 l 98 108 m 295 304 l 129 292 l 0 1067 l 273 1106 l 295 304 "}," ":{"x_min":0,"x_max":0,"ha":695},"X":{"x_min":0,"x_max":1045.921875,"ha":1057,"o":"m 277 1026 l 495 804 l 657 1042 l 920 789 l 729 562 l 1045 314 l 782 10 l 554 307 l 265 17 l 0 279 l 306 555 l 73 817 l 277 1026 l 277 1026 "},"P":{"x_min":0,"x_max":877.84375,"ha":883,"o":"m 613 1028 l 858 859 l 877 448 l 630 209 l 323 189 l 323 -6 l 0 -6 l 51 1028 l 613 1028 l 613 1028 m 380 711 l 370 543 l 462 530 l 579 668 l 380 711 l 380 711 "},"%":{"x_min":0,"x_max":794.515625,"ha":854,"o":"m 540 1034 l 794 1075 l 286 46 l 0 6 l 540 1034 m 659 406 l 755 295 l 725 48 l 572 0 l 450 122 l 475 336 l 561 412 l 659 406 l 659 406 m 591 270 l 579 179 l 604 158 l 630 177 l 626 256 l 591 270 l 591 270 m 265 1067 l 361 954 l 330 708 l 177 658 l 52 783 l 79 996 l 165 1071 l 265 1067 l 265 1067 m 195 930 l 183 838 l 206 818 l 234 837 l 229 915 l 195 930 l 195 930 "},"#":{"x_min":5.5625,"x_max":1151.484375,"ha":1157,"o":"m 380 1040 l 548 1081 l 405 40 l 216 0 l 380 1040 m 755 1040 l 925 1081 l 780 40 l 591 0 l 730 1005 l 755 1040 m 997 835 l 1125 626 l 156 596 l 5 825 l 997 835 m 1018 455 l 1151 230 l 187 204 l 83 439 l 1018 455 "},"_":{"x_min":0,"x_max":1011.1875,"ha":1011,"o":"m 0 -39 l 0 37 l 1011 37 l 1011 -39 l 0 -39 "},"+":{"x_min":-2.78125,"x_max":466.703125,"ha":572,"o":"m 308 728 l 305 589 l 448 602 l 466 445 l 305 451 l 323 307 l 173 296 l 161 452 l 20 456 l -2 588 l 165 588 l 150 735 l 308 728 l 308 728 "},")":{"x_min":0,"x_max":348.640625,"ha":365,"o":"m 0 1090 l 98 1090 l 243 913 l 348 558 l 293 182 l 145 3 l 45 3 l 220 236 l 255 551 l 165 870 l 0 1090 l 0 1090 "},"'":{"x_min":-4.953125,"x_max":126,"ha":154,"o":"m 51 1090 l 126 1077 l 126 923 l 52 824 l -4 846 l 52 959 l 51 1090 l 51 1090 "},"T":{"x_min":0,"x_max":1026.46875,"ha":1099,"o":"m 0 1031 l 1026 1012 l 1026 596 l 679 653 l 775 -1 l 277 -1 l 352 653 l 0 671 l 0 1031 l 0 1031 "},"a":{"x_min":-208.34375,"x_max":1062.578125,"ha":999,"o":"m 623 1029 l 1062 72 l 643 6 l 609 251 l 272 259 l 195 -3 l -208 69 l 345 1001 l 623 1029 l 623 1029 m 416 665 l 359 523 l 572 518 l 523 661 l 416 665 l 416 665 "},"=":{"x_min":0,"x_max":444.484375,"ha":550,"o":"m 6 415 l 0 490 l 423 523 l 444 426 l 6 415 m 6 604 l 0 677 l 423 711 l 444 613 l 6 604 "},"N":{"x_min":0,"x_max":929.234375,"ha":954,"o":"m 0 17 l 184 1031 l 394 1031 l 590 708 l 607 1031 l 929 981 l 861 6 l 594 22 l 388 336 l 329 4 l 0 17 l 0 17 "},"⁄":{"x_min":0,"x_max":0,"ha":1157},"2":{"x_min":5.5625,"x_max":952.859375,"ha":1013,"o":"m 5 840 l 293 1031 l 544 1029 l 755 873 l 847 488 l 570 306 l 873 331 l 952 1 l 152 12 l 47 216 l 458 541 l 429 630 l 362 683 l 194 568 l 5 840 l 5 840 "},"j":{"x_min":0,"x_max":913.96875,"ha":954,"o":"m 0 1026 l 304 1033 l 913 1005 l 913 732 l 637 706 l 740 224 l 597 43 l 326 0 l 25 0 l 34 305 l 365 328 l 327 706 l 0 732 l 0 1026 l 0 1026 "},"Z":{"x_min":0,"x_max":868.125,"ha":926,"o":"m 857 4 l 0 38 l 0 316 l 344 675 l 0 654 l 61 1039 l 868 982 l 852 718 l 536 367 l 868 416 l 857 4 l 857 4 "},"u":{"x_min":-12.5,"x_max":963.96875,"ha":1013,"o":"m -12 1026 l 436 1026 l 415 324 l 588 449 l 537 951 l 963 951 l 963 276 l 715 -4 l 191 -4 l -12 245 l -12 1026 l -12 1026 "},"1":{"x_min":0,"x_max":990.359375,"ha":983,"o":"m 732 1009 l 650 284 l 943 322 l 990 1 l 0 1 l 27 302 l 358 284 l 358 660 l 184 551 l 0 802 l 373 1029 l 732 1009 l 732 1009 "},"k":{"x_min":0,"x_max":840.34375,"ha":840,"o":"m 19 1029 l 309 1029 l 302 748 l 520 997 l 719 785 l 468 512 l 840 247 l 611 0 l 300 337 l 356 -3 l 0 -3 l 19 1029 l 19 1029 "},"<":{"x_min":13.890625,"x_max":1090.359375,"ha":1157,"o":"m 959 1083 q 974 1058 957 1080 q 1015 1009 991 1035 q 1077 941 1041 978 q 687 773 859 848 q 543 710 613 741 q 417 656 472 680 q 327 616 362 631 q 293 599 293 601 q 325 578 291 598 q 414 528 358 559 q 542 456 470 497 q 688 375 613 416 q 836 294 763 334 q 964 224 908 255 q 1055 173 1020 192 q 1090 152 1090 154 q 1072 124 1090 151 q 1033 67 1054 98 q 995 11 1012 37 q 979 -14 977 -14 q 938 13 979 -14 q 829 86 897 41 q 675 189 762 131 q 498 308 588 247 q 13 631 286 449 l 488 859 q 663 942 577 902 q 814 1014 748 983 q 920 1064 880 1045 q 959 1083 961 1083 "},"t":{"x_min":0,"x_max":1026.46875,"ha":1099,"o":"m 0 1031 l 1026 1012 l 1026 596 l 679 653 l 775 -1 l 277 -1 l 352 653 l 0 671 l 0 1031 l 0 1031 "},"W":{"x_min":0,"x_max":1427.890625,"ha":1432,"o":"m 1427 937 l 984 8 l 726 8 l 630 287 l 488 6 l 252 0 l 0 1003 l 330 1033 l 393 780 l 468 534 l 697 763 l 870 502 l 1080 1012 l 1427 937 l 1427 937 "},"v":{"x_min":0,"x_max":1109.8125,"ha":1172,"o":"m 0 1035 l 359 1015 l 502 394 l 556 463 l 711 1015 l 1109 1035 l 718 4 l 234 40 l 0 1035 l 0 1035 "},">":{"x_min":12.5,"x_max":1088.96875,"ha":1157,"o":"m 143 -11 q 128 13 145 -8 q 87 62 111 35 q 25 130 61 92 q 415 298 243 223 q 559 360 488 330 q 684 415 629 391 q 774 455 740 440 q 809 472 808 470 q 777 492 811 473 q 688 543 744 512 q 560 615 632 574 q 413 696 488 655 q 266 776 338 737 q 138 847 194 816 q 47 898 81 879 q 12 919 12 917 q 30 947 12 920 q 69 1004 48 973 q 107 1060 90 1034 q 123 1086 125 1086 q 163 1058 122 1086 q 272 984 204 1030 q 427 880 340 938 q 604 762 513 822 q 1088 440 816 620 l 613 212 q 439 128 525 169 q 287 56 354 88 q 181 6 220 24 q 143 -11 141 -12 "},"s":{"x_min":1.390625,"x_max":1007.03125,"ha":1013,"o":"m 1007 772 l 827 551 l 618 685 l 565 619 l 940 344 l 758 1 l 312 1 l 1 248 l 136 474 l 404 323 l 444 385 l 51 619 l 423 1036 l 758 1036 l 1007 772 l 1007 772 "},"B":{"x_min":0.9375,"x_max":873.234375,"ha":840,"o":"m 191 1038 l 673 981 l 784 803 l 776 612 l 703 504 l 805 445 l 873 247 l 795 62 l 634 5 l 28 1 l 0 978 l 191 1038 l 191 1038 m 356 211 l 498 241 l 498 336 l 356 384 l 356 211 l 356 211 m 338 641 l 479 670 l 479 784 l 338 815 l 338 641 l 338 641 "},"?":{"x_min":0,"x_max":607,"ha":738,"o":"m 413 94 l 365 4 l 241 0 l 191 74 l 225 194 l 336 199 l 413 94 m 355 645 l 394 795 l 313 845 l 191 733 l 0 931 l 181 1082 l 427 1082 l 607 865 l 600 588 l 406 458 l 427 263 l 175 263 l 145 479 l 355 645 "},"H":{"x_min":0.40625,"x_max":925.03125,"ha":954,"o":"m 0 969 l 350 1036 l 367 612 l 570 643 l 583 1016 l 869 1004 l 925 7 l 602 18 l 600 330 l 406 293 l 412 7 l 111 7 l 0 969 l 0 969 "},"c":{"x_min":-48.609375,"x_max":857.015625,"ha":854,"o":"m 398 1033 l 782 1008 l 766 640 l 516 756 l 298 655 l 288 419 l 480 288 l 762 435 l 857 48 l 302 0 l 31 237 l -48 535 l 76 856 l 398 1033 l 398 1033 "},"I":{"x_min":6.9375,"x_max":484.765625,"ha":507,"o":"m 6 1026 l 276 1043 l 484 59 l 43 11 l 6 1026 l 6 1026 "},"G":{"x_min":0,"x_max":900.078125,"ha":926,"o":"m 870 821 l 633 687 l 537 740 l 395 697 l 311 496 l 400 308 l 655 339 l 661 384 l 463 366 l 488 646 l 900 640 l 900 91 l 209 3 l 0 429 l 76 821 l 370 1035 l 732 1010 l 870 821 l 870 821 "},"(":{"x_min":0,"x_max":347.25,"ha":342,"o":"m 347 1083 l 183 863 l 93 544 l 127 230 l 302 -3 l 202 -3 l 55 174 l 0 551 l 105 906 l 250 1083 l 347 1083 l 347 1083 "},"U":{"x_min":-12.5,"x_max":963.96875,"ha":1013,"o":"m -12 1026 l 436 1026 l 415 324 l 588 449 l 537 951 l 963 951 l 963 276 l 715 -4 l 191 -4 l -12 245 l -12 1026 l -12 1026 "},"F":{"x_min":1.390625,"x_max":768.109375,"ha":796,"o":"m 68 1036 l 768 1030 l 729 695 l 347 738 l 341 627 l 665 644 l 612 338 l 341 373 l 400 4 l 30 4 l 1 754 l 68 1036 l 68 1036 "},"r":{"x_min":0,"x_max":969.515625,"ha":940,"o":"m 576 1026 l 833 838 l 857 514 l 712 353 l 969 127 l 668 -3 l 352 266 l 400 -1 l 80 -1 l 0 981 l 576 1026 l 576 1026 m 352 738 l 344 541 l 429 530 l 513 652 l 352 738 l 352 738 "},":":{"x_min":19.453125,"x_max":238.90625,"ha":419,"o":"m 127 248 l 227 199 l 238 67 l 158 11 l 29 41 l 19 158 l 127 248 m 22 643 l 116 699 l 231 633 l 236 536 l 138 444 l 34 503 l 22 643 "},"x":{"x_min":0,"x_max":1045.921875,"ha":1057,"o":"m 277 1026 l 495 804 l 657 1042 l 920 789 l 729 562 l 1045 314 l 782 10 l 554 307 l 265 17 l 0 279 l 306 555 l 73 817 l 277 1026 l 277 1026 "},"*":{"x_min":0.328125,"x_max":223.890625,"ha":358,"o":"m 93 999 l 135 1000 l 129 906 l 200 966 l 219 919 l 137 886 l 223 844 l 196 812 l 129 861 l 137 775 l 92 779 l 100 861 l 30 811 l 0 850 l 93 886 l 7 920 l 30 961 l 100 911 l 93 999 l 93 999 "},"V":{"x_min":0,"x_max":1109.8125,"ha":1172,"o":"m 0 1035 l 359 1015 l 502 394 l 556 463 l 711 1015 l 1109 1035 l 718 4 l 234 40 l 0 1035 l 0 1035 "}," ":{"x_min":0,"x_max":0,"ha":695},"h":{"x_min":0.40625,"x_max":925.03125,"ha":954,"o":"m 0 969 l 350 1036 l 367 612 l 570 643 l 583 1016 l 869 1004 l 925 7 l 602 18 l 600 330 l 406 293 l 412 7 l 111 7 l 0 969 l 0 969 "},"0":{"x_min":4.171875,"x_max":766.734375,"ha":768,"o":"m 529 1017 l 766 737 l 690 124 l 311 1 l 4 309 l 66 841 l 280 1031 l 529 1017 l 529 1017 m 356 677 l 326 450 l 387 398 l 454 445 l 441 641 l 356 677 l 356 677 "},".":{"x_min":88.890625,"x_max":323.640625,"ha":419,"o":"m 148 240 l 258 240 l 323 126 l 277 42 l 148 13 l 88 114 l 148 240 l 148 240 "},"”":{"x_min":-4.5625,"x_max":285,"ha":348,"o":"m 51 1090 l 126 1077 l 126 923 l 52 824 l -4 846 l 52 959 l 51 1090 m 285 1077 l 285 923 l 211 824 l 154 846 l 211 959 l 210 1090 l 285 1077 "},"@":{"x_min":4.171875,"x_max":1207.046875,"ha":1274,"o":"m 586 143 l 841 255 l 912 173 l 612 3 l 222 87 l 4 484 l 161 993 l 529 1186 l 1091 949 l 1207 477 l 1111 344 l 1033 231 l 883 252 l 825 323 l 640 234 l 325 286 l 254 669 l 448 933 l 708 922 l 827 843 l 832 884 l 930 833 l 907 580 l 940 361 l 1002 337 l 1087 505 l 986 854 l 534 1038 l 273 884 l 165 515 l 294 229 l 586 143 l 586 143 m 529 713 l 466 618 l 506 487 l 626 487 l 705 580 l 665 700 l 529 713 l 529 713 "},"f":{"x_min":1.390625,"x_max":768.109375,"ha":753,"o":"m 68 1036 l 768 1030 l 729 695 l 347 738 l 341 627 l 665 644 l 612 338 l 341 373 l 400 4 l 30 4 l 1 754 l 68 1036 l 68 1036 "},";":{"x_min":15.28125,"x_max":309.75,"ha":433,"o":"m 100 633 l 193 689 l 305 625 l 309 529 l 213 440 l 112 497 l 100 633 m 123 131 l 227 126 l 197 -23 l 84 -128 l 15 -128 l 111 6 l 123 131 "},"“":{"x_min":0,"x_max":0,"ha":1157},"i":{"x_min":6.9375,"x_max":484.765625,"ha":507,"o":"m 6 1026 l 276 1043 l 484 59 l 43 11 l 6 1026 l 6 1026 "},"A":{"x_min":-208.34375,"x_max":1062.578125,"ha":999,"o":"m 623 1029 l 1062 72 l 643 6 l 609 251 l 272 259 l 195 -3 l -208 69 l 345 1001 l 623 1029 l 623 1029 m 416 665 l 359 523 l 572 518 l 523 661 l 416 665 l 416 665 "},"6":{"x_min":0,"x_max":715.328125,"ha":825,"o":"m 213 998 l 465 1036 l 715 984 l 620 692 l 397 776 l 293 694 l 280 616 l 577 608 l 695 416 l 693 166 l 527 1 l 188 1 l 0 166 l 0 515 l 38 798 l 213 998 l 213 998 m 358 370 l 293 338 l 295 257 l 405 257 l 427 345 l 358 370 l 358 370 "},"‘":{"x_min":0,"x_max":0,"ha":1157},"n":{"x_min":0,"x_max":929.234375,"ha":954,"o":"m 0 17 l 184 1031 l 394 1031 l 590 708 l 607 1031 l 929 981 l 861 6 l 594 22 l 388 336 l 329 4 l 0 17 l 0 17 "},"O":{"x_min":-44.453125,"x_max":1027.859375,"ha":1054,"o":"m 725 1018 l 1027 642 l 941 146 l 393 3 l -44 389 l 20 824 l 347 1031 l 725 1018 l 725 1018 m 429 668 l 358 509 l 480 427 l 609 475 l 602 629 l 429 668 l 429 668 "},"3":{"x_min":1.390625,"x_max":741.71875,"ha":854,"o":"m 1 843 l 247 1028 l 559 983 l 709 725 l 612 584 l 733 495 l 741 181 l 576 1 l 205 35 l 1 242 l 166 404 l 305 273 l 436 308 l 440 387 l 236 456 l 244 581 l 409 691 l 366 737 l 134 630 l 1 843 l 1 843 "},"]":{"x_min":1,"x_max":332.9375,"ha":478,"o":"m 12 -122 l 1 -19 l 212 -37 l 218 1087 l 1 1046 l 1 1182 l 326 1203 l 332 -136 l 12 -122 "},"m":{"x_min":0,"x_max":1602.90625,"ha":1606,"o":"m 0 105 l 495 1024 l 788 1024 l 886 746 l 1058 1025 l 1318 1031 l 1602 31 l 1232 1 l 1161 253 l 1076 498 l 820 270 l 625 530 l 390 31 l 0 105 l 0 105 "},"9":{"x_min":0,"x_max":740.34375,"ha":781,"o":"m 425 1038 l 740 824 l 727 445 l 620 176 l 161 1 l 0 223 l 366 319 l 443 455 l 190 435 l 0 643 l 50 940 l 425 1038 l 425 1038 m 312 667 l 433 667 l 445 732 l 390 778 l 312 732 l 312 667 l 312 667 "},"l":{"x_min":0,"x_max":811.171875,"ha":882,"o":"m 386 995 l 345 373 l 772 425 l 811 104 l 38 13 l 0 1040 l 386 995 l 386 995 "},"8":{"x_min":0,"x_max":801.453125,"ha":868,"o":"m 640 994 l 740 721 l 619 625 l 780 493 l 801 84 l 575 -4 l 213 -4 l 0 121 l 23 487 l 193 616 l 63 721 l 161 1035 l 640 994 l 640 994 m 505 359 l 425 393 l 344 359 l 344 293 l 425 259 l 505 293 l 505 359 l 505 359 m 461 815 l 400 840 l 338 815 l 338 765 l 400 740 l 461 765 l 461 815 l 461 815 "},"p":{"x_min":0,"x_max":877.84375,"ha":883,"o":"m 613 1028 l 858 859 l 877 448 l 630 209 l 323 189 l 323 -6 l 0 -6 l 51 1028 l 613 1028 l 613 1028 m 380 711 l 370 543 l 462 530 l 579 668 l 380 711 l 380 711 "},"4":{"x_min":5.5625,"x_max":957.015625,"ha":1057,"o":"m 737 568 l 957 558 l 957 309 l 761 297 l 798 43 l 441 6 l 436 297 l 11 297 l 5 555 l 288 1038 l 676 1011 l 737 568 l 737 568 m 300 568 l 423 568 l 412 712 l 300 568 l 300 568 "},"R":{"x_min":0,"x_max":969.515625,"ha":940,"o":"m 576 1026 l 833 838 l 857 514 l 712 353 l 969 127 l 668 -3 l 352 266 l 400 -1 l 80 -1 l 0 981 l 576 1026 l 576 1026 m 352 738 l 344 541 l 429 530 l 513 652 l 352 738 l 352 738 "},"o":{"x_min":-44.453125,"x_max":1027.859375,"ha":1054,"o":"m 725 1018 l 1027 642 l 941 146 l 393 3 l -44 389 l 20 824 l 347 1031 l 725 1018 l 725 1018 m 429 668 l 358 509 l 480 427 l 609 475 l 602 629 l 429 668 l 429 668 "},"5":{"x_min":0,"x_max":847.296875,"ha":925,"o":"m 794 1029 l 736 754 l 343 758 l 351 696 l 576 687 l 847 540 l 845 230 l 741 62 l 262 14 l 9 132 l 122 344 l 294 284 l 450 278 l 511 348 l 441 413 l 126 407 l 13 601 l 0 1005 l 794 1029 l 794 1029 "}}}
